<svg id="SvgjsSvg1008" xmlns="http://www.w3.org/2000/svg" version="1.1" width="80" height="91" viewBox="0 0 80 91"><title>Shape 4</title><desc>Created with Avocode.</desc><defs id="SvgjsDefs1009"></defs><path id="SvgjsPath1010" d="M939.756 3177.11C939.3539999999999 3177.11 938.953 3176.96 938.6469999999999 3176.6600000000003L935.549 3173.5800000000004C934.937 3172.9700000000003 934.937 3171.9800000000005 935.549 3171.3800000000006C936.162 3170.7700000000004 937.155 3170.7700000000004 937.768 3171.3800000000006L939.7570000000001 3173.3500000000004L944.8430000000001 3168.3C945.455 3167.69 946.4490000000001 3167.69 947.0620000000001 3168.3C947.6750000000002 3168.9100000000003 947.6750000000002 3169.8900000000003 947.0620000000001 3170.5L940.8670000000001 3176.66C940.5590000000001 3176.96 940.157 3177.1099999999997 939.7560000000001 3177.1099999999997ZM972.311 3174.04H953.6370000000001C952.7710000000001 3174.04 952.0680000000001 3173.34 952.0680000000001 3172.48C952.0680000000001 3171.62 952.7710000000001 3170.92 953.6370000000001 3170.92H972.311C973.177 3170.92 973.88 3171.62 973.88 3172.48C973.88 3173.34 973.178 3174.04 972.311 3174.04ZM939.756 3203.79C939.3539999999999 3203.79 938.953 3203.64 938.6469999999999 3203.34L935.549 3200.26C934.937 3199.65 934.937 3198.6600000000003 935.549 3198.0600000000004C936.162 3197.4500000000003 937.155 3197.4500000000003 937.768 3198.0600000000004L939.7570000000001 3200.03L944.8430000000001 3194.98C945.455 3194.37 946.4490000000001 3194.37 947.0620000000001 3194.98C947.6750000000002 3195.59 947.6750000000002 3196.58 947.0620000000001 3197.18L940.8670000000001 3203.3399999999997C940.5590000000001 3203.64 940.157 3203.7899999999995 939.7560000000001 3203.7899999999995ZM972.311 3200.72H953.6370000000001C952.7710000000001 3200.72 952.0680000000001 3200.02 952.0680000000001 3199.16C952.0680000000001 3198.2999999999997 952.7710000000001 3197.6 953.6370000000001 3197.6H972.311C973.177 3197.6 973.88 3198.2999999999997 973.88 3199.16C973.88 3200.02 973.178 3200.72 972.311 3200.72ZM939.756 3217.14C939.3539999999999 3217.14 938.953 3216.98 938.6469999999999 3216.68L935.549 3213.6C934.937 3212.99 934.937 3212.0099999999998 935.549 3211.4C936.162 3210.79 937.155 3210.79 937.768 3211.4L939.7570000000001 3213.37L944.8430000000001 3208.3199999999997C945.455 3207.7099999999996 946.4490000000001 3207.7099999999996 947.0620000000001 3208.3199999999997C947.6760000000002 3208.93 947.6750000000002 3209.9199999999996 947.0620000000001 3210.5299999999997L940.8670000000001 3216.68C940.5590000000001 3216.98 940.157 3217.14 939.7560000000001 3217.14ZM972.311 3214.06H953.6370000000001C952.7710000000001 3214.06 952.0680000000001 3213.36 952.0680000000001 3212.5C952.0680000000001 3211.64 952.7710000000001 3210.94 953.6370000000001 3210.94H972.311C973.177 3210.94 973.88 3211.64 973.88 3212.5C973.88 3213.36 973.178 3214.06 972.311 3214.06ZM939.756 3190.45C939.3539999999999 3190.45 938.953 3190.2999999999997 938.6469999999999 3190L935.549 3186.92C934.937 3186.31 934.937 3185.32 935.549 3184.71C936.162 3184.11 937.155 3184.11 937.768 3184.71L939.7570000000001 3186.69L944.8430000000001 3181.64C945.455 3181.0299999999997 946.4490000000001 3181.0299999999997 947.0620000000001 3181.64C947.6760000000002 3182.25 947.6750000000002 3183.23 947.0620000000001 3183.8399999999997L940.8670000000001 3189.9999999999995C940.5590000000001 3190.2999999999997 940.157 3190.4499999999994 939.7560000000001 3190.4499999999994ZM972.311 3187.38H953.6370000000001C952.7710000000001 3187.38 952.0680000000001 3186.6800000000003 952.0680000000001 3185.82C952.0680000000001 3184.96 952.7710000000001 3184.26 953.6370000000001 3184.26H972.311C973.177 3184.26 973.88 3184.96 973.88 3185.82C973.88 3186.6800000000003 973.178 3187.38 972.311 3187.38ZM994.888 3150.4H976.422C976.202 3147.2200000000003 973.534 3144.7200000000003 970.2810000000001 3144.7200000000003H964.296C964.254 3141.57 961.6700000000001 3139.01 958.48 3139.01C955.3000000000001 3139.01 952.705 3141.57 952.673 3144.7200000000003H946.679C943.435 3144.7200000000003 940.7669999999999 3147.2200000000003 940.548 3150.4H920.081C918.9200000000001 3150.4 917.989 3151.34 917.989 3152.48V3227.92C917.989 3229.07 918.9200000000001 3230 920.081 3230H994.888C996.049 3230 996.981 3229.07 996.981 3227.92V3152.48C996.981 3151.34 996.049 3150.4 994.888 3150.4ZM944.711 3150.84C944.711 3149.76 945.591 3148.88 946.679 3148.88H953.218C955.226 3148.88 956.8589999999999 3147.26 956.8589999999999 3145.27V3144.79C956.8589999999999 3143.9 957.5909999999999 3143.17 958.4809999999999 3143.17C959.3799999999999 3143.17 960.1129999999998 3143.9 960.1129999999998 3144.79V3145.27C960.1129999999998 3147.2599999999998 961.7449999999998 3148.88 963.7429999999998 3148.88H970.2819999999998C971.3809999999999 3148.88 972.2589999999998 3149.76 972.2589999999998 3150.84V3155.1000000000004H944.7129999999997V3150.84ZM922.173 3225.84V3154.56H940.526V3157.18C940.526 3158.33 941.457 3159.2599999999998 942.6179999999999 3159.2599999999998H974.3489999999999C975.5099999999999 3159.2599999999998 976.4409999999999 3158.33 976.4409999999999 3157.18V3154.56H992.7939999999999V3225.84ZM958.485 3149.14C959.595 3149.14 960.494 3150.0299999999997 960.494 3151.14C960.494 3152.24 959.595 3153.1299999999997 958.485 3153.1299999999997C957.375 3153.1299999999997 956.475 3152.24 956.475 3151.14C956.475 3150.0299999999997 957.375 3149.14 958.485 3149.14Z " fill="#3c3c3c" fill-opacity="1" transform="matrix(1,0,0,1,-917,-3139)"></path></svg>